<svg width="900" height="173" viewBox="0 0 900 173" fill="none" xmlns="http://www.w3.org/2000/svg">
<rect width="900" height="173" fill="#323232"/>
<path d="M102 38.2395V22.8002H110.271V38.2395H102ZM110.266 38.2395V22.8002H118.537V38.2395H110.266ZM118.531 38.2395V22.8002H126.802V38.2395H118.531ZM126.797 38.2395V22.8002H135.068V38.2395H126.797ZM135.063 38.2395V22.8002H143.334V38.2395H135.063ZM143.328 38.2395V22.8002H151.6V38.2395H143.328ZM155.206 38.2395H154.158V31.857H151.594V30.8093H155.206V38.2395ZM156.254 38.2395V29.7617H151.594V28.714H157.301V38.2395H156.254ZM168.126 38.2395V22.8002H176.397V38.2395H168.126ZM176.391 38.2395V22.8002H184.662V38.2395H176.391ZM188.269 38.2395H187.221V31.857H184.657V30.8093H188.269V38.2395ZM189.316 38.2395V29.7617H184.657V28.714H190.364V38.2395H189.316ZM192.923 38.2395V22.8002H201.194V38.2395H192.923ZM201.188 38.2395V22.8002H209.459V38.2395H201.188ZM213.066 38.2395H212.018V31.857H209.454V30.8093H213.066V38.2395ZM214.113 38.2395V29.7617H209.454V28.714H215.161V38.2395H214.113ZM234.251 38.2395V22.8002H242.522V38.2395H234.251ZM242.517 38.2395V22.8002H250.788V38.2395H242.517ZM254.394 38.2395H253.346V31.857H250.782V30.8093H254.394V38.2395ZM255.442 38.2395V29.7617H250.782V28.714H256.489V38.2395H255.442ZM259.048 38.2395V22.8002H267.319V38.2395H259.048ZM267.314 38.2395V22.8002H275.585V38.2395H267.314ZM279.191 38.2395H278.144V31.857H275.579V30.8093H279.191V38.2395ZM280.239 38.2395V29.7617H275.579V28.714H281.287V38.2395H280.239ZM325.174 38.2395V22.8002H333.445V38.2395H325.174ZM333.439 38.2395V22.8002H341.71V38.2395H333.439ZM345.317 38.2395H344.269V31.857H341.705V30.8093H345.317V38.2395ZM346.364 38.2395V29.7617H341.705V28.714H347.412V38.2395H346.364ZM349.971 38.2395V22.8002H358.242V38.2395H349.971ZM358.236 38.2395V22.8002H366.507V38.2395H358.236ZM366.502 38.2395V22.8002H374.773V38.2395H366.502ZM374.768 38.2395V22.8002H383.039V38.2395H374.768ZM383.033 38.2395V22.8002H391.305V38.2395H383.033ZM391.299 38.2395V22.8002H399.57V38.2395H391.299ZM399.565 38.2395V22.8002H407.836V38.2395H399.565ZM411.442 38.2395H410.395V31.857H407.831V30.8093H411.442V38.2395ZM412.49 38.2395V29.7617H407.831V28.714H413.538V38.2395H412.49ZM440.893 38.2395V22.8002H449.164V38.2395H440.893ZM449.159 38.2395V22.8002H457.43V38.2395H449.159ZM457.425 38.2395V22.8002H465.696V38.2395H457.425ZM465.69 38.2395V22.8002H473.961V38.2395H465.69ZM473.956 38.2395V22.8002H482.227V38.2395H473.956ZM482.222 38.2395V22.8002H490.493V38.2395H482.222ZM490.487 38.2395V22.8002H498.759V38.2395H490.487ZM502.365 38.2395H501.317V31.857H498.753V30.8093H502.365V38.2395ZM503.412 38.2395V29.7617H498.753V28.714H504.46V38.2395H503.412ZM507.019 38.2395V22.8002H515.29V38.2395H507.019ZM515.284 38.2395V22.8002H523.556V38.2395H515.284ZM527.162 38.2395H526.114V31.857H523.55V30.8093H527.162V38.2395ZM528.21 38.2395V29.7617H523.55V28.714H529.257V38.2395H528.21ZM548.347 38.2395V22.8002H556.618V38.2395H548.347ZM556.613 38.2395V22.8002H564.884V38.2395H556.613ZM568.49 38.2395H567.443V31.857H564.879V30.8093H568.49V38.2395ZM569.538 38.2395V29.7617H564.879V28.714H570.586V38.2395H569.538ZM573.144 38.2395V22.8002H581.415V38.2395H573.144ZM581.41 38.2395V22.8002H589.681V38.2395H581.41ZM593.287 38.2395H592.24V31.857H589.676V30.8093H593.287V38.2395ZM594.335 38.2395V29.7617H589.676V28.714H595.383V38.2395H594.335ZM597.941 38.2395V22.8002H606.212V38.2395H597.941ZM606.207 38.2395V22.8002H614.478V38.2395H606.207ZM618.084 38.2395H617.037V31.857H614.473V30.8093H618.084V38.2395ZM619.132 38.2395V29.7617H614.473V28.714H620.18V38.2395H619.132ZM664.067 38.2395V22.8002H672.338V38.2395H664.067ZM672.333 38.2395V22.8002H680.604V38.2395H672.333ZM684.21 38.2395H683.162V31.857H680.598V30.8093H684.21V38.2395ZM685.258 38.2395V29.7617H680.598V28.714H686.305V38.2395H685.258ZM730.192 38.2395V22.8002H738.464V38.2395H730.192ZM738.458 38.2395V22.8002H746.729V38.2395H738.458ZM746.724 38.2395V22.8002H754.995V38.2395H746.724ZM754.99 38.2395V22.8002H763.261V38.2395H754.99ZM763.255 38.2395V22.8002H771.526V38.2395H763.255ZM771.521 38.2395V22.8002H779.792V38.2395H771.521ZM779.787 38.2395V22.8002H788.058V38.2395H779.787ZM791.664 38.2395H790.616V31.857H788.052V30.8093H791.664V38.2395ZM792.712 38.2395V29.7617H788.052V28.714H793.759V38.2395H792.712ZM102 53.2395V37.8002H110.271V53.2395H102ZM110.266 53.2395V37.8002H118.537V53.2395H110.266ZM122.143 53.2395H121.095V43.714H126.802V44.7617H122.143V53.2395ZM123.191 53.2395V45.8093H126.802V46.857H124.238V53.2395H123.191ZM126.797 45.8093H135.068V46.857H126.797V45.8093ZM126.797 44.7617V43.714H135.068V44.7617H126.797ZM135.063 45.8093H143.334V46.857H135.063V45.8093ZM135.063 44.7617V43.714H143.334V44.7617H135.063ZM143.328 53.2395V37.8002H151.6V53.2395H143.328ZM151.594 53.2395V37.8002H159.865V53.2395H151.594ZM163.472 53.2395H162.424V46.857H159.86V45.8093H163.472V53.2395ZM164.519 53.2395V44.7617H159.86V43.714H165.567V53.2395H164.519ZM168.126 53.2395V37.8002H176.397V53.2395H168.126ZM176.391 53.2395V37.8002H184.662V53.2395H176.391ZM188.269 53.2395H187.221V37.8002H188.269V53.2395ZM189.316 37.8002H190.364V53.2395H189.316V37.8002ZM195.487 46.857V37.8002H196.534V45.8093H201.194V46.857H195.487ZM201.194 44.7617H197.582V37.8002H198.63V43.714H201.194V44.7617ZM201.188 53.2395V37.8002H209.459V53.2395H201.188ZM209.454 53.2395V37.8002H217.725V53.2395H209.454ZM221.331 53.2395H220.284V46.857H217.72V45.8093H221.331V53.2395ZM222.379 53.2395V44.7617H217.72V43.714H223.427V53.2395H222.379ZM225.985 53.2395V37.8002H234.256V53.2395H225.985ZM234.251 53.2395V37.8002H242.522V53.2395H234.251ZM246.128 53.2395H245.081V43.714H250.788V44.7617H246.128V53.2395ZM247.176 53.2395V45.8093H250.788V46.857H248.224V53.2395H247.176ZM250.782 45.8093H255.442V37.8002H256.489V46.857H250.782V45.8093ZM250.782 44.7617V43.714H253.346V37.8002H254.394V44.7617H250.782ZM259.048 53.2395V37.8002H267.319V53.2395H259.048ZM267.314 53.2395V37.8002H275.585V53.2395H267.314ZM279.191 53.2395H278.144V37.8002H279.191V53.2395ZM280.239 37.8002H281.287V53.2395H280.239V37.8002ZM325.174 53.2395V37.8002H333.445V53.2395H325.174ZM333.439 53.2395V37.8002H341.71V53.2395H333.439ZM345.317 53.2395H344.269V37.8002H345.317V53.2395ZM346.364 37.8002H347.412V53.2395H346.364V37.8002ZM349.971 53.2395V37.8002H358.242V53.2395H349.971ZM358.236 53.2395V37.8002H366.507V53.2395H358.236ZM370.114 53.2395H369.066V43.714H374.773V44.7617H370.114V53.2395ZM371.161 53.2395V45.8093H374.773V46.857H372.209V53.2395H371.161ZM374.768 45.8093H383.039V46.857H374.768V45.8093ZM374.768 44.7617V43.714H383.039V44.7617H374.768ZM383.033 45.8093H391.305V46.857H383.033V45.8093ZM383.033 44.7617V43.714H391.305V44.7617H383.033ZM391.299 45.8093H399.57V46.857H391.299V45.8093ZM391.299 44.7617V43.714H399.57V44.7617H391.299ZM399.565 45.8093H407.836V46.857H399.565V45.8093ZM399.565 44.7617V43.714H407.836V44.7617H399.565ZM407.831 45.8093H412.49V37.8002H413.538V46.857H407.831V45.8093ZM407.831 44.7617V43.714H410.395V37.8002H411.442V44.7617H407.831ZM440.893 53.2395V37.8002H449.164V53.2395H440.893ZM449.159 53.2395V37.8002H457.43V53.2395H449.159ZM461.036 53.2395H459.989V43.714H465.696V44.7617H461.036V53.2395ZM462.084 53.2395V45.8093H465.696V46.857H463.132V53.2395H462.084ZM465.69 45.8093H473.961V46.857H465.69V45.8093ZM465.69 44.7617V43.714H473.961V44.7617H465.69ZM473.956 45.8093H482.227V46.857H473.956V45.8093ZM473.956 44.7617V43.714H482.227V44.7617H473.956ZM482.222 45.8093H490.493V46.857H482.222V45.8093ZM482.222 44.7617V43.714H490.493V44.7617H482.222ZM490.487 45.8093H498.759V46.857H490.487V45.8093ZM490.487 44.7617V43.714H498.759V44.7617H490.487ZM498.753 45.8093H503.412V37.8002H504.46V46.857H498.753V45.8093ZM498.753 44.7617V43.714H501.317V37.8002H502.365V44.7617H498.753ZM507.019 53.2395V37.8002H515.29V53.2395H507.019ZM515.284 53.2395V37.8002H523.556V53.2395H515.284ZM527.162 53.2395H526.114V37.8002H527.162V53.2395ZM528.21 37.8002H529.257V53.2395H528.21V37.8002ZM540.082 53.2395V37.8002H548.353V53.2395H540.082ZM548.347 53.2395V37.8002H556.618V53.2395H548.347ZM560.225 53.2395H559.177V43.714H564.884V44.7617H560.225V53.2395ZM561.272 53.2395V45.8093H564.884V46.857H562.32V53.2395H561.272ZM564.879 45.8093H569.538V37.8002H570.586V46.857H564.879V45.8093ZM564.879 44.7617V43.714H567.443V37.8002H568.49V44.7617H564.879ZM573.144 53.2395V37.8002H581.415V53.2395H573.144ZM581.41 53.2395V37.8002H589.681V53.2395H581.41ZM593.287 53.2395H592.24V37.8002H593.287V53.2395ZM594.335 37.8002H595.383V53.2395H594.335V37.8002ZM597.941 53.2395V37.8002H606.212V53.2395H597.941ZM606.207 53.2395V37.8002H614.478V53.2395H606.207ZM618.084 53.2395H617.037V37.8002H618.084V53.2395ZM619.132 37.8002H620.18V53.2395H619.132V37.8002ZM664.067 53.2395V37.8002H672.338V53.2395H664.067ZM672.333 53.2395V37.8002H680.604V53.2395H672.333ZM684.21 53.2395H683.162V37.8002H684.21V53.2395ZM685.258 37.8002H686.305V53.2395H685.258V37.8002ZM730.192 53.2395V37.8002H738.464V53.2395H730.192ZM738.458 53.2395V37.8002H746.729V53.2395H738.458ZM750.336 53.2395H749.288V43.714H754.995V44.7617H750.336V53.2395ZM751.383 53.2395V45.8093H754.995V46.857H752.431V53.2395H751.383ZM754.99 45.8093H763.261V46.857H754.99V45.8093ZM754.99 44.7617V43.714H763.261V44.7617H754.99ZM763.255 45.8093H771.526V46.857H763.255V45.8093ZM763.255 44.7617V43.714H771.526V44.7617H763.255ZM771.521 45.8093H779.792V46.857H771.521V45.8093ZM771.521 44.7617V43.714H779.792V44.7617H771.521ZM779.787 45.8093H788.058V46.857H779.787V45.8093ZM779.787 44.7617V43.714H788.058V44.7617H779.787ZM788.052 45.8093H792.712V37.8002H793.759V46.857H788.052V45.8093ZM788.052 44.7617V43.714H790.616V37.8002H791.664V44.7617H788.052ZM102 68.2395V52.8002H110.271V68.2395H102ZM110.266 68.2395V52.8002H118.537V68.2395H110.266ZM118.531 68.2395V52.8002H126.802V68.2395H118.531ZM126.797 68.2395V52.8002H135.068V68.2395H126.797ZM135.063 68.2395V52.8002H143.334V68.2395H135.063ZM143.328 68.2395V52.8002H151.6V68.2395H143.328ZM155.206 68.2395H154.158V58.714H159.865V59.7617H155.206V68.2395ZM156.254 68.2395V60.8093H159.865V61.857H157.301V68.2395H156.254ZM159.86 60.8093H164.519V52.8002H165.567V61.857H159.86V60.8093ZM159.86 59.7617V58.714H162.424V52.8002H163.472V59.7617H159.86ZM168.126 68.2395V52.8002H176.397V68.2395H168.126ZM176.391 68.2395V52.8002H184.662V68.2395H176.391ZM188.269 68.2395H187.221V52.8002H188.269V68.2395ZM189.316 52.8002H190.364V68.2395H189.316V52.8002ZM203.752 61.857V52.8002H204.8V60.8093H209.459V61.857H203.752ZM209.459 59.7617H205.848V52.8002H206.895V58.714H209.459V59.7617ZM209.454 68.2395V52.8002H217.725V68.2395H209.454ZM217.72 68.2395V52.8002H225.991V68.2395H217.72ZM225.985 68.2395V52.8002H234.256V68.2395H225.985ZM237.863 68.2395H236.815V58.714H242.522V59.7617H237.863V68.2395ZM238.91 68.2395V60.8093H242.522V61.857H239.958V68.2395H238.91ZM242.517 60.8093H247.176V52.8002H248.224V61.857H242.517V60.8093ZM242.517 59.7617V58.714H245.081V52.8002H246.128V59.7617H242.517ZM259.048 68.2395V52.8002H267.319V68.2395H259.048ZM267.314 68.2395V52.8002H275.585V68.2395H267.314ZM279.191 68.2395H278.144V52.8002H279.191V68.2395ZM280.239 52.8002H281.287V68.2395H280.239V52.8002ZM325.174 68.2395V52.8002H333.445V68.2395H325.174ZM333.439 68.2395V52.8002H341.71V68.2395H333.439ZM345.317 68.2395H344.269V52.8002H345.317V68.2395ZM346.364 52.8002H347.412V68.2395H346.364V52.8002ZM349.971 68.2395V52.8002H358.242V68.2395H349.971ZM358.236 68.2395V52.8002H366.507V68.2395H358.236ZM366.502 68.2395V52.8002H374.773V68.2395H366.502ZM374.768 68.2395V52.8002H383.039V68.2395H374.768ZM383.033 68.2395V52.8002H391.305V68.2395H383.033ZM391.299 68.2395V52.8002H399.57V68.2395H391.299ZM399.565 68.2395V52.8002H407.836V68.2395H399.565ZM411.442 68.2395H410.395V61.857H407.831V60.8093H411.442V68.2395ZM412.49 68.2395V59.7617H407.831V58.714H413.538V68.2395H412.49ZM440.893 68.2395V52.8002H449.164V68.2395H440.893ZM449.159 68.2395V52.8002H457.43V68.2395H449.159ZM457.425 68.2395V52.8002H465.696V68.2395H457.425ZM465.69 68.2395V52.8002H473.961V68.2395H465.69ZM473.956 68.2395V52.8002H482.227V68.2395H473.956ZM482.222 68.2395V52.8002H490.493V68.2395H482.222ZM490.487 68.2395V52.8002H498.759V68.2395H490.487ZM502.365 68.2395H501.317V61.857H498.753V60.8093H502.365V68.2395ZM503.412 68.2395V59.7617H498.753V58.714H504.46V68.2395H503.412ZM507.019 68.2395V52.8002H515.29V68.2395H507.019ZM515.284 68.2395V52.8002H523.556V68.2395H515.284ZM523.55 68.2395V52.8002H531.821V68.2395H523.55ZM531.816 68.2395V52.8002H540.087V68.2395H531.816ZM540.082 68.2395V52.8002H548.353V68.2395H540.082ZM551.959 68.2395H550.911V58.714H556.618V59.7617H551.959V68.2395ZM553.007 68.2395V60.8093H556.618V61.857H554.054V68.2395H553.007ZM556.613 60.8093H561.272V52.8002H562.32V61.857H556.613V60.8093ZM556.613 59.7617V58.714H559.177V52.8002H560.225V59.7617H556.613ZM573.144 68.2395V52.8002H581.415V68.2395H573.144ZM581.41 68.2395V52.8002H589.681V68.2395H581.41ZM593.287 68.2395H592.24V52.8002H593.287V68.2395ZM594.335 52.8002H595.383V68.2395H594.335V52.8002ZM597.941 68.2395V52.8002H606.212V68.2395H597.941ZM606.207 68.2395V52.8002H614.478V68.2395H606.207ZM618.084 68.2395H617.037V52.8002H618.084V68.2395ZM619.132 52.8002H620.18V68.2395H619.132V52.8002ZM664.067 68.2395V52.8002H672.338V68.2395H664.067ZM672.333 68.2395V52.8002H680.604V68.2395H672.333ZM684.21 68.2395H683.162V52.8002H684.21V68.2395ZM685.258 52.8002H686.305V68.2395H685.258V52.8002ZM730.192 68.2395V52.8002H738.464V68.2395H730.192ZM738.458 68.2395V52.8002H746.729V68.2395H738.458ZM746.724 68.2395V52.8002H754.995V68.2395H746.724ZM754.99 68.2395V52.8002H763.261V68.2395H754.99ZM763.255 68.2395V52.8002H771.526V68.2395H763.255ZM771.521 68.2395V52.8002H779.792V68.2395H771.521ZM779.787 68.2395V52.8002H788.058V68.2395H779.787ZM791.664 68.2395H790.616V61.857H788.052V60.8093H791.664V68.2395ZM792.712 68.2395V59.7617H788.052V58.714H793.759V68.2395H792.712ZM102 83.2395V67.8002H110.271V83.2395H102ZM110.266 83.2395V67.8002H118.537V83.2395H110.266ZM122.143 83.2395H121.095V73.714H126.802V74.7617H122.143V83.2395ZM123.191 83.2395V75.8093H126.802V76.857H124.238V83.2395H123.191ZM126.797 75.8093H135.068V76.857H126.797V75.8093ZM126.797 74.7617V73.714H135.068V74.7617H126.797ZM135.063 75.8093H143.334V76.857H135.063V75.8093ZM135.063 74.7617V73.714H143.334V74.7617H135.063ZM143.328 75.8093H151.6V76.857H143.328V75.8093ZM143.328 74.7617V73.714H151.6V74.7617H143.328ZM151.594 75.8093H156.254V67.8002H157.301V76.857H151.594V75.8093ZM151.594 74.7617V73.714H154.158V67.8002H155.206V74.7617H151.594ZM168.126 83.2395V67.8002H176.397V83.2395H168.126ZM176.391 83.2395V67.8002H184.662V83.2395H176.391ZM188.269 83.2395H187.221V67.8002H188.269V83.2395ZM189.316 67.8002H190.364V83.2395H189.316V67.8002ZM201.188 83.2395V67.8002H209.459V83.2395H201.188ZM209.454 83.2395V67.8002H217.725V83.2395H209.454ZM221.331 83.2395H220.284V73.714H225.991V74.7617H221.331V83.2395ZM222.379 83.2395V75.8093H225.991V76.857H223.427V83.2395H222.379ZM225.985 83.2395V67.8002H234.256V83.2395H225.985ZM234.251 83.2395V67.8002H242.522V83.2395H234.251ZM246.128 83.2395H245.081V76.857H242.517V75.8093H246.128V83.2395ZM247.176 83.2395V74.7617H242.517V73.714H248.224V83.2395H247.176ZM259.048 83.2395V67.8002H267.319V83.2395H259.048ZM267.314 83.2395V67.8002H275.585V83.2395H267.314ZM279.191 83.2395H278.144V67.8002H279.191V83.2395ZM280.239 67.8002H281.287V83.2395H280.239V67.8002ZM283.845 83.2395V67.8002H292.116V83.2395H283.845ZM292.111 83.2395V67.8002H300.382V83.2395H292.111ZM325.174 83.2395V67.8002H333.445V83.2395H325.174ZM333.439 83.2395V67.8002H341.71V83.2395H333.439ZM345.317 83.2395H344.269V67.8002H345.317V83.2395ZM346.364 67.8002H347.412V83.2395H346.364V67.8002ZM352.535 76.857V67.8002H353.582V75.8093H358.242V76.857H352.535ZM358.242 74.7617H354.63V67.8002H355.678V73.714H358.242V74.7617ZM358.236 75.8093H366.507V76.857H358.236V75.8093ZM358.236 74.7617V73.714H366.507V74.7617H358.236ZM366.502 75.8093H374.773V76.857H366.502V75.8093ZM366.502 74.7617V73.714H374.773V74.7617H366.502ZM374.768 75.8093H383.039V76.857H374.768V75.8093ZM374.768 74.7617V73.714H383.039V74.7617H374.768ZM383.033 75.8093H391.305V76.857H383.033V75.8093ZM383.033 74.7617V73.714H391.305V74.7617H383.033ZM391.299 83.2395V67.8002H399.57V83.2395H391.299ZM399.565 83.2395V67.8002H407.836V83.2395H399.565ZM411.442 83.2395H410.395V67.8002H411.442V83.2395ZM412.49 67.8002H413.538V83.2395H412.49V67.8002ZM443.457 76.857V67.8002H444.505V75.8093H449.164V76.857H443.457ZM449.164 74.7617H445.553V67.8002H446.6V73.714H449.164V74.7617ZM449.159 75.8093H457.43V76.857H449.159V75.8093ZM449.159 74.7617V73.714H457.43V74.7617H449.159ZM457.425 75.8093H465.696V76.857H457.425V75.8093ZM457.425 74.7617V73.714H465.696V74.7617H457.425ZM465.69 75.8093H473.961V76.857H465.69V75.8093ZM465.69 74.7617V73.714H473.961V74.7617H465.69ZM473.956 75.8093H482.227V76.857H473.956V75.8093ZM473.956 74.7617V73.714H482.227V74.7617H473.956ZM482.222 83.2395V67.8002H490.493V83.2395H482.222ZM490.487 83.2395V67.8002H498.759V83.2395H490.487ZM502.365 83.2395H501.317V67.8002H502.365V83.2395ZM503.412 67.8002H504.46V83.2395H503.412V67.8002ZM507.019 83.2395V67.8002H515.29V83.2395H507.019ZM515.284 83.2395V67.8002H523.556V83.2395H515.284ZM527.162 83.2395H526.114V73.714H531.821V74.7617H527.162V83.2395ZM528.21 83.2395V75.8093H531.821V76.857H529.257V83.2395H528.21ZM531.816 75.8093H540.087V76.857H531.816V75.8093ZM531.816 74.7617V73.714H540.087V74.7617H531.816ZM540.082 83.2395V67.8002H548.353V83.2395H540.082ZM548.347 83.2395V67.8002H556.618V83.2395H548.347ZM560.225 83.2395H559.177V76.857H556.613V75.8093H560.225V83.2395ZM561.272 83.2395V74.7617H556.613V73.714H562.32V83.2395H561.272ZM573.144 83.2395V67.8002H581.415V83.2395H573.144ZM581.41 83.2395V67.8002H589.681V83.2395H581.41ZM593.287 83.2395H592.24V67.8002H593.287V83.2395ZM594.335 67.8002H595.383V83.2395H594.335V67.8002ZM597.941 83.2395V67.8002H606.212V83.2395H597.941ZM606.207 83.2395V67.8002H614.478V83.2395H606.207ZM618.084 83.2395H617.037V67.8002H618.084V83.2395ZM619.132 67.8002H620.18V83.2395H619.132V67.8002ZM664.067 83.2395V67.8002H672.338V83.2395H664.067ZM672.333 83.2395V67.8002H680.604V83.2395H672.333ZM684.21 83.2395H683.162V67.8002H684.21V83.2395ZM685.258 67.8002H686.305V83.2395H685.258V67.8002ZM732.756 76.857V67.8002H733.804V75.8093H738.464V76.857H732.756ZM738.464 74.7617H734.852V67.8002H735.899V73.714H738.464V74.7617ZM738.458 75.8093H746.729V76.857H738.458V75.8093ZM738.458 74.7617V73.714H746.729V74.7617H738.458ZM746.724 75.8093H754.995V76.857H746.724V75.8093ZM746.724 74.7617V73.714H754.995V74.7617H746.724ZM754.99 75.8093H763.261V76.857H754.99V75.8093ZM754.99 74.7617V73.714H763.261V74.7617H754.99ZM763.255 75.8093H771.526V76.857H763.255V75.8093ZM763.255 74.7617V73.714H771.526V74.7617H763.255ZM771.521 83.2395V67.8002H779.792V83.2395H771.521ZM779.787 83.2395V67.8002H788.058V83.2395H779.787ZM791.664 83.2395H790.616V67.8002H791.664V83.2395ZM792.712 67.8002H793.759V83.2395H792.712V67.8002ZM102 98.2395V82.8002H110.271V98.2395H102ZM110.266 98.2395V82.8002H118.537V98.2395H110.266ZM122.143 98.2395H121.095V82.8002H122.143V98.2395ZM123.191 82.8002H124.238V98.2395H123.191V82.8002ZM168.126 98.2395V82.8002H176.397V98.2395H168.126ZM176.391 98.2395V82.8002H184.662V98.2395H176.391ZM188.269 98.2395H187.221V82.8002H188.269V98.2395ZM189.316 82.8002H190.364V98.2395H189.316V82.8002ZM192.923 98.2395V82.8002H201.194V98.2395H192.923ZM201.188 98.2395V82.8002H209.459V98.2395H201.188ZM213.066 98.2395H212.018V88.714H217.725V89.7617H213.066V98.2395ZM214.113 98.2395V90.8093H217.725V91.857H215.161V98.2395H214.113ZM217.72 90.8093H222.379V82.8002H223.427V91.857H217.72V90.8093ZM217.72 89.7617V88.714H220.284V82.8002H221.331V89.7617H217.72ZM234.251 98.2395V82.8002H242.522V98.2395H234.251ZM242.517 98.2395V82.8002H250.788V98.2395H242.517ZM254.394 98.2395H253.346V91.857H250.782V90.8093H254.394V98.2395ZM255.442 98.2395V89.7617H250.782V88.714H256.489V98.2395H255.442ZM259.048 98.2395V82.8002H267.319V98.2395H259.048ZM267.314 98.2395V82.8002H275.585V98.2395H267.314ZM279.191 98.2395H278.144V82.8002H279.191V98.2395ZM280.239 82.8002H281.287V98.2395H280.239V82.8002ZM286.409 91.857V82.8002H287.457V90.8093H292.116V91.857H286.409ZM292.116 89.7617H288.505V82.8002H289.552V88.714H292.116V89.7617ZM292.111 98.2395V82.8002H300.382V98.2395H292.111ZM300.377 98.2395V82.8002H308.648V98.2395H300.377ZM308.642 98.2395V82.8002H316.913V98.2395H308.642ZM316.908 98.2395V82.8002H325.179V98.2395H316.908ZM325.174 98.2395V82.8002H333.445V98.2395H325.174ZM337.051 98.2395H336.003V88.714H341.71V89.7617H337.051V98.2395ZM338.099 98.2395V90.8093H341.71V91.857H339.146V98.2395H338.099ZM341.705 90.8093H346.364V82.8002H347.412V91.857H341.705V90.8093ZM341.705 89.7617V88.714H344.269V82.8002H345.317V89.7617H341.705ZM349.971 98.2395V82.8002H358.242V98.2395H349.971ZM358.236 98.2395V82.8002H366.507V98.2395H358.236ZM366.502 98.2395V82.8002H374.773V98.2395H366.502ZM374.768 98.2395V82.8002H383.039V98.2395H374.768ZM383.033 98.2395V82.8002H391.305V98.2395H383.033ZM391.299 98.2395V82.8002H399.57V98.2395H391.299ZM399.565 98.2395V82.8002H407.836V98.2395H399.565ZM411.442 98.2395H410.395V82.8002H411.442V98.2395ZM412.49 82.8002H413.538V98.2395H412.49V82.8002ZM440.893 98.2395V82.8002H449.164V98.2395H440.893ZM449.159 98.2395V82.8002H457.43V98.2395H449.159ZM457.425 98.2395V82.8002H465.696V98.2395H457.425ZM465.69 98.2395V82.8002H473.961V98.2395H465.69ZM473.956 98.2395V82.8002H482.227V98.2395H473.956ZM482.222 98.2395V82.8002H490.493V98.2395H482.222ZM490.487 98.2395V82.8002H498.759V98.2395H490.487ZM502.365 98.2395H501.317V82.8002H502.365V98.2395ZM503.412 82.8002H504.46V98.2395H503.412V82.8002ZM507.019 98.2395V82.8002H515.29V98.2395H507.019ZM515.284 98.2395V82.8002H523.556V98.2395H515.284ZM527.162 98.2395H526.114V82.8002H527.162V98.2395ZM528.21 82.8002H529.257V98.2395H528.21V82.8002ZM548.347 98.2395V82.8002H556.618V98.2395H548.347ZM556.613 98.2395V82.8002H564.884V98.2395H556.613ZM568.49 98.2395H567.443V91.857H564.879V90.8093H568.49V98.2395ZM569.538 98.2395V89.7617H564.879V88.714H570.586V98.2395H569.538ZM573.144 98.2395V82.8002H581.415V98.2395H573.144ZM581.41 98.2395V82.8002H589.681V98.2395H581.41ZM593.287 98.2395H592.24V82.8002H593.287V98.2395ZM594.335 82.8002H595.383V98.2395H594.335V82.8002ZM597.941 98.2395V82.8002H606.212V98.2395H597.941ZM606.207 98.2395V82.8002H614.478V98.2395H606.207ZM614.473 98.2395V82.8002H622.744V98.2395H614.473ZM622.738 98.2395V82.8002H631.01V98.2395H622.738ZM631.004 98.2395V82.8002H639.275V98.2395H631.004ZM639.27 98.2395V82.8002H647.541V98.2395H639.27ZM647.536 98.2395V82.8002H655.807V98.2395H647.536ZM659.413 98.2395H658.365V91.857H655.801V90.8093H659.413V98.2395ZM660.461 98.2395V89.7617H655.801V88.714H661.508V98.2395H660.461ZM664.067 98.2395V82.8002H672.338V98.2395H664.067ZM672.333 98.2395V82.8002H680.604V98.2395H672.333ZM680.598 98.2395V82.8002H688.869V98.2395H680.598ZM688.864 98.2395V82.8002H697.135V98.2395H688.864ZM697.13 98.2395V82.8002H705.401V98.2395H697.13ZM705.395 98.2395V82.8002H713.666V98.2395H705.395ZM713.661 98.2395V82.8002H721.932V98.2395H713.661ZM725.538 98.2395H724.491V91.857H721.927V90.8093H725.538V98.2395ZM726.586 98.2395V89.7617H721.927V88.714H727.634V98.2395H726.586ZM730.192 98.2395V82.8002H738.464V98.2395H730.192ZM738.458 98.2395V82.8002H746.729V98.2395H738.458ZM746.724 98.2395V82.8002H754.995V98.2395H746.724ZM754.99 98.2395V82.8002H763.261V98.2395H754.99ZM763.255 98.2395V82.8002H771.526V98.2395H763.255ZM771.521 98.2395V82.8002H779.792V98.2395H771.521ZM779.787 98.2395V82.8002H788.058V98.2395H779.787ZM791.664 98.2395H790.616V82.8002H791.664V98.2395ZM792.712 82.8002H793.759V98.2395H792.712V82.8002ZM104.564 106.857V97.8002H105.612V105.809H110.271V106.857H104.564ZM110.271 104.762H106.659V97.8002H107.707V103.714H110.271V104.762ZM110.266 105.809H118.537V106.857H110.266V105.809ZM110.266 104.762V103.714H118.537V104.762H110.266ZM118.531 105.809H123.191V97.8002H124.238V106.857H118.531V105.809ZM118.531 104.762V103.714H121.095V97.8002H122.143V104.762H118.531ZM170.69 106.857V97.8002H171.737V105.809H176.397V106.857H170.69ZM176.397 104.762H172.785V97.8002H173.833V103.714H176.397V104.762ZM176.391 105.809H184.662V106.857H176.391V105.809ZM176.391 104.762V103.714H184.662V104.762H176.391ZM184.657 105.809H189.316V97.8002H190.364V106.857H184.657V105.809ZM184.657 104.762V103.714H187.221V97.8002H188.269V104.762H184.657ZM195.487 106.857V97.8002H196.534V105.809H201.194V106.857H195.487ZM201.194 104.762H197.582V97.8002H198.63V103.714H201.194V104.762ZM201.188 105.809H209.459V106.857H201.188V105.809ZM201.188 104.762V103.714H209.459V104.762H201.188ZM209.454 105.809H214.113V97.8002H215.161V106.857H209.454V105.809ZM209.454 104.762V103.714H212.018V97.8002H213.066V104.762H209.454ZM236.815 106.857V97.8002H237.863V105.809H242.522V106.857H236.815ZM242.522 104.762H238.91V97.8002H239.958V103.714H242.522V104.762ZM242.517 105.809H250.788V106.857H242.517V105.809ZM242.517 104.762V103.714H250.788V104.762H242.517ZM250.782 105.809H255.442V97.8002H256.489V106.857H250.782V105.809ZM250.782 104.762V103.714H253.346V97.8002H254.394V104.762H250.782ZM261.612 106.857V97.8002H262.66V105.809H267.319V106.857H261.612ZM267.319 104.762H263.707V97.8002H264.755V103.714H267.319V104.762ZM267.314 105.809H275.585V106.857H267.314V105.809ZM267.314 104.762V103.714H275.585V104.762H267.314ZM275.579 105.809H280.239V97.8002H281.287V106.857H275.579V105.809ZM275.579 104.762V103.714H278.144V97.8002H279.191V104.762H275.579ZM294.675 106.857V97.8002H295.723V105.809H300.382V106.857H294.675ZM300.382 104.762H296.77V97.8002H297.818V103.714H300.382V104.762ZM300.377 105.809H308.648V106.857H300.377V105.809ZM300.377 104.762V103.714H308.648V104.762H300.377ZM308.642 105.809H316.913V106.857H308.642V105.809ZM308.642 104.762V103.714H316.913V104.762H308.642ZM316.908 105.809H325.179V106.857H316.908V105.809ZM316.908 104.762V103.714H325.179V104.762H316.908ZM325.174 105.809H333.445V106.857H325.174V105.809ZM325.174 104.762V103.714H333.445V104.762H325.174ZM333.439 105.809H338.099V97.8002H339.146V106.857H333.439V105.809ZM333.439 104.762V103.714H336.003V97.8002H337.051V104.762H333.439ZM352.535 106.857V97.8002H353.582V105.809H358.242V106.857H352.535ZM358.242 104.762H354.63V97.8002H355.678V103.714H358.242V104.762ZM358.236 105.809H366.507V106.857H358.236V105.809ZM358.236 104.762V103.714H366.507V104.762H358.236ZM366.502 105.809H374.773V106.857H366.502V105.809ZM366.502 104.762V103.714H374.773V104.762H366.502ZM374.768 105.809H383.039V106.857H374.768V105.809ZM374.768 104.762V103.714H383.039V104.762H374.768ZM383.033 105.809H391.305V106.857H383.033V105.809ZM383.033 104.762V103.714H391.305V104.762H383.033ZM391.299 105.809H399.57V106.857H391.299V105.809ZM391.299 104.762V103.714H399.57V104.762H391.299ZM399.565 105.809H407.836V106.857H399.565V105.809ZM399.565 104.762V103.714H407.836V104.762H399.565ZM407.831 105.809H412.49V97.8002H413.538V106.857H407.831V105.809ZM407.831 104.762V103.714H410.395V97.8002H411.442V104.762H407.831ZM443.457 106.857V97.8002H444.505V105.809H449.164V106.857H443.457ZM449.164 104.762H445.553V97.8002H446.6V103.714H449.164V104.762ZM449.159 105.809H457.43V106.857H449.159V105.809ZM449.159 104.762V103.714H457.43V104.762H449.159ZM457.425 105.809H465.696V106.857H457.425V105.809ZM457.425 104.762V103.714H465.696V104.762H457.425ZM465.69 105.809H473.961V106.857H465.69V105.809ZM465.69 104.762V103.714H473.961V104.762H465.69ZM473.956 105.809H482.227V106.857H473.956V105.809ZM473.956 104.762V103.714H482.227V104.762H473.956ZM482.222 105.809H490.493V106.857H482.222V105.809ZM482.222 104.762V103.714H490.493V104.762H482.222ZM490.487 105.809H498.759V106.857H490.487V105.809ZM490.487 104.762V103.714H498.759V104.762H490.487ZM498.753 105.809H503.412V97.8002H504.46V106.857H498.753V105.809ZM498.753 104.762V103.714H501.317V97.8002H502.365V104.762H498.753ZM509.583 106.857V97.8002H510.631V105.809H515.29V106.857H509.583ZM515.29 104.762H511.678V97.8002H512.726V103.714H515.29V104.762ZM515.284 105.809H523.556V106.857H515.284V105.809ZM515.284 104.762V103.714H523.556V104.762H515.284ZM523.55 105.809H528.21V97.8002H529.257V106.857H523.55V105.809ZM523.55 104.762V103.714H526.114V97.8002H527.162V104.762H523.55ZM550.911 106.857V97.8002H551.959V105.809H556.618V106.857H550.911ZM556.618 104.762H553.007V97.8002H554.054V103.714H556.618V104.762ZM556.613 105.809H564.884V106.857H556.613V105.809ZM556.613 104.762V103.714H564.884V104.762H556.613ZM564.879 105.809H569.538V97.8002H570.586V106.857H564.879V105.809ZM564.879 104.762V103.714H567.443V97.8002H568.49V104.762H564.879ZM575.708 106.857V97.8002H576.756V105.809H581.415V106.857H575.708ZM581.415 104.762H577.804V97.8002H578.851V103.714H581.415V104.762ZM581.41 105.809H589.681V106.857H581.41V105.809ZM581.41 104.762V103.714H589.681V104.762H581.41ZM589.676 105.809H594.335V97.8002H595.383V106.857H589.676V105.809ZM589.676 104.762V103.714H592.24V97.8002H593.287V104.762H589.676ZM600.505 106.857V97.8002H601.553V105.809H606.212V106.857H600.505ZM606.212 104.762H602.601V97.8002H603.648V103.714H606.212V104.762ZM606.207 105.809H614.478V106.857H606.207V105.809ZM606.207 104.762V103.714H614.478V104.762H606.207ZM614.473 105.809H622.744V106.857H614.473V105.809ZM614.473 104.762V103.714H622.744V104.762H614.473ZM622.738 105.809H631.01V106.857H622.738V105.809ZM622.738 104.762V103.714H631.01V104.762H622.738ZM631.004 105.809H639.275V106.857H631.004V105.809ZM631.004 104.762V103.714H639.275V104.762H631.004ZM639.27 105.809H647.541V106.857H639.27V105.809ZM639.27 104.762V103.714H647.541V104.762H639.27ZM647.536 105.809H655.807V106.857H647.536V105.809ZM647.536 104.762V103.714H655.807V104.762H647.536ZM655.801 105.809H660.461V97.8002H661.508V106.857H655.801V105.809ZM655.801 104.762V103.714H658.365V97.8002H659.413V104.762H655.801ZM666.631 106.857V97.8002H667.679V105.809H672.338V106.857H666.631ZM672.338 104.762H668.726V97.8002H669.774V103.714H672.338V104.762ZM672.333 105.809H680.604V106.857H672.333V105.809ZM672.333 104.762V103.714H680.604V104.762H672.333ZM680.598 105.809H688.869V106.857H680.598V105.809ZM680.598 104.762V103.714H688.869V104.762H680.598ZM688.864 105.809H697.135V106.857H688.864V105.809ZM688.864 104.762V103.714H697.135V104.762H688.864ZM697.13 105.809H705.401V106.857H697.13V105.809ZM697.13 104.762V103.714H705.401V104.762H697.13ZM705.395 105.809H713.666V106.857H705.395V105.809ZM705.395 104.762V103.714H713.666V104.762H705.395ZM713.661 105.809H721.932V106.857H713.661V105.809ZM713.661 104.762V103.714H721.932V104.762H713.661ZM721.927 105.809H726.586V97.8002H727.634V106.857H721.927V105.809ZM721.927 104.762V103.714H724.491V97.8002H725.538V104.762H721.927ZM732.756 106.857V97.8002H733.804V105.809H738.464V106.857H732.756ZM738.464 104.762H734.852V97.8002H735.899V103.714H738.464V104.762ZM738.458 105.809H746.729V106.857H738.458V105.809ZM738.458 104.762V103.714H746.729V104.762H738.458ZM746.724 105.809H754.995V106.857H746.724V105.809ZM746.724 104.762V103.714H754.995V104.762H746.724ZM754.99 105.809H763.261V106.857H754.99V105.809ZM754.99 104.762V103.714H763.261V104.762H754.99ZM763.255 105.809H771.526V106.857H763.255V105.809ZM763.255 104.762V103.714H771.526V104.762H763.255ZM771.521 105.809H779.792V106.857H771.521V105.809ZM771.521 104.762V103.714H779.792V104.762H771.521ZM779.787 105.809H788.058V106.857H779.787V105.809ZM779.787 104.762V103.714H788.058V104.762H779.787ZM788.052 105.809H792.712V97.8002H793.759V106.857H788.052V105.809ZM788.052 104.762V103.714H790.616V97.8002H791.664V104.762H788.052ZM300.377 135.809V134.762H308.648V135.809H300.377ZM308.642 135.809V134.762H316.913V135.809H308.642ZM321.043 133.149C321.54 133.149 322.027 133.277 322.505 133.535C322.983 133.792 323.35 134.16 323.607 134.638C323.874 135.106 324.007 135.598 324.007 136.113C324.007 136.931 323.718 137.629 323.139 138.208C322.56 138.787 321.861 139.076 321.043 139.076C320.226 139.076 319.527 138.787 318.948 138.208C318.369 137.629 318.08 136.931 318.08 136.113C318.08 135.598 318.213 135.106 318.479 134.638C318.746 134.16 319.114 133.792 319.582 133.535C320.06 133.277 320.547 133.149 321.043 133.149ZM325.174 135.809V134.762H333.445V135.809H325.174ZM333.439 135.809V134.762H341.71V135.809H333.439ZM341.705 135.809V134.762H349.976V135.809H341.705ZM349.971 135.809V134.762H358.242V135.809H349.971ZM362.372 133.149C362.868 133.149 363.355 133.277 363.833 133.535C364.311 133.792 364.679 134.16 364.936 134.638C365.202 135.106 365.336 135.598 365.336 136.113C365.336 136.931 365.046 137.629 364.467 138.208C363.888 138.787 363.19 139.076 362.372 139.076C361.554 139.076 360.856 138.787 360.277 138.208C359.698 137.629 359.408 136.931 359.408 136.113C359.408 135.598 359.541 135.106 359.808 134.638C360.074 134.16 360.442 133.792 360.911 133.535C361.389 133.277 361.876 133.149 362.372 133.149ZM366.502 135.809V134.762H374.773V135.809H366.502ZM374.768 135.809V134.762H383.039V135.809H374.768ZM383.033 135.809V134.762H391.305V135.809H383.033ZM391.299 135.809V134.762H399.57V135.809H391.299ZM403.7 133.149C404.197 133.149 404.684 133.277 405.162 133.535C405.639 133.792 406.007 134.16 406.264 134.638C406.531 135.106 406.664 135.598 406.664 136.113C406.664 136.931 406.375 137.629 405.796 138.208C405.217 138.787 404.518 139.076 403.7 139.076C402.882 139.076 402.184 138.787 401.605 138.208C401.026 137.629 400.737 136.931 400.737 136.113C400.737 135.598 400.87 135.106 401.136 134.638C401.403 134.16 401.77 133.792 402.239 133.535C402.717 133.277 403.204 133.149 403.7 133.149ZM407.831 135.809V134.762H416.102V135.809H407.831ZM416.096 135.809V134.762H424.367V135.809H416.096ZM424.362 135.809V134.762H432.633V135.809H424.362ZM432.628 135.809V134.762H440.899V135.809H432.628ZM445.029 133.149C445.525 133.149 446.012 133.277 446.49 133.535C446.968 133.792 447.336 134.16 447.593 134.638C447.859 135.106 447.993 135.598 447.993 136.113C447.993 136.931 447.703 137.629 447.124 138.208C446.545 138.787 445.847 139.076 445.029 139.076C444.211 139.076 443.512 138.787 442.933 138.208C442.355 137.629 442.065 136.931 442.065 136.113C442.065 135.598 442.198 135.106 442.465 134.638C442.731 134.16 443.099 133.792 443.568 133.535C444.045 133.277 444.533 133.149 445.029 133.149ZM449.159 135.809V134.762H457.43V135.809H449.159ZM457.425 135.809V134.762H465.696V135.809H457.425ZM465.69 135.809V134.762H473.961V135.809H465.69ZM473.956 135.809V134.762H482.227V135.809H473.956ZM486.357 133.149C486.854 133.149 487.341 133.277 487.819 133.535C488.296 133.792 488.664 134.16 488.921 134.638C489.188 135.106 489.321 135.598 489.321 136.113C489.321 136.931 489.032 137.629 488.453 138.208C487.874 138.787 487.175 139.076 486.357 139.076C485.539 139.076 484.841 138.787 484.262 138.208C483.683 137.629 483.393 136.931 483.393 136.113C483.393 135.598 483.527 135.106 483.793 134.638C484.06 134.16 484.427 133.792 484.896 133.535C485.374 133.277 485.861 133.149 486.357 133.149ZM490.487 135.809V134.762H498.759V135.809H490.487ZM498.753 135.809V134.762H507.024V135.809H498.753ZM507.019 135.809V134.762H515.29V135.809H507.019ZM515.284 135.809V134.762H523.556V135.809H515.284ZM527.686 133.149C528.182 133.149 528.669 133.277 529.147 133.535C529.625 133.792 529.992 134.16 530.25 134.638C530.516 135.106 530.65 135.598 530.65 136.113C530.65 136.931 530.36 137.629 529.781 138.208C529.202 138.787 528.504 139.076 527.686 139.076C526.868 139.076 526.169 138.787 525.59 138.208C525.011 137.629 524.722 136.931 524.722 136.113C524.722 135.598 524.855 135.106 525.122 134.638C525.388 134.16 525.756 133.792 526.224 133.535C526.702 133.277 527.189 133.149 527.686 133.149ZM531.816 135.809V134.762H540.087V135.809H531.816ZM540.082 135.809V134.762H548.353V135.809H540.082ZM273.255 152.326H269.547L268.665 155H267.534L270.76 145.35H272.111L275.364 155H274.165L273.255 152.326ZM269.905 151.333H272.938L271.518 146.798H271.353L269.905 151.333ZM276.407 145.35H283.023V146.371H280.28V153.98H283.023V155H276.407V153.98H279.136V146.371H276.407V145.35ZM294.179 153.635C294.454 153.782 294.762 153.906 295.102 154.007C295.451 154.099 295.801 154.145 296.15 154.145C296.453 154.145 296.738 154.118 297.005 154.063C297.271 153.998 297.501 153.902 297.694 153.773C297.896 153.635 298.052 153.465 298.163 153.263C298.282 153.061 298.342 152.822 298.342 152.546C298.342 152.169 298.213 151.862 297.956 151.623C297.708 151.384 297.395 151.172 297.018 150.989C296.642 150.805 296.233 150.626 295.791 150.451C295.35 150.276 294.941 150.07 294.565 149.831C294.188 149.592 293.871 149.302 293.613 148.962C293.365 148.613 293.241 148.172 293.241 147.639C293.241 147.262 293.315 146.922 293.462 146.619C293.618 146.315 293.834 146.058 294.11 145.847C294.385 145.635 294.716 145.474 295.102 145.364C295.497 145.245 295.934 145.185 296.412 145.185C296.963 145.185 297.464 145.226 297.914 145.309C298.365 145.383 298.723 145.484 298.99 145.612L299.017 145.599V145.626H299.031L299.017 145.667V147.873H297.997V146.398C297.767 146.343 297.515 146.297 297.239 146.26C296.963 146.223 296.669 146.205 296.357 146.205C296.053 146.205 295.778 146.242 295.53 146.315C295.291 146.389 295.084 146.49 294.909 146.619C294.744 146.738 294.615 146.881 294.523 147.046C294.431 147.211 294.385 147.386 294.385 147.57C294.385 147.928 294.509 148.227 294.758 148.466C295.015 148.705 295.332 148.921 295.709 149.114C296.086 149.298 296.495 149.481 296.936 149.665C297.377 149.849 297.786 150.065 298.163 150.313C298.539 150.552 298.852 150.841 299.1 151.182C299.357 151.522 299.486 151.944 299.486 152.45C299.486 152.863 299.408 153.236 299.252 153.566C299.105 153.897 298.889 154.182 298.604 154.421C298.328 154.66 297.983 154.844 297.57 154.972C297.165 155.101 296.706 155.165 296.191 155.165C295.842 155.165 295.511 155.138 295.199 155.083C294.886 155.028 294.597 154.959 294.33 154.876C294.073 154.793 293.839 154.706 293.627 154.614C293.425 154.522 293.264 154.444 293.145 154.38L293.159 154.338V152.105H294.179V153.635ZM300.707 145.35H302.941V151.057H303.699L306.414 148.107H307.71L304.664 151.375L307.173 154.076H308.069V155H306.649L303.699 151.885H302.941V155H301.879V146.274H300.707V145.35ZM310.09 155V154.076H312.488V149.031H310.09V148.107H313.591V154.076H315.935V155H310.09ZM312.116 146.15C312.116 145.902 312.199 145.69 312.364 145.516C312.53 145.332 312.741 145.24 312.998 145.24C313.265 145.24 313.485 145.332 313.66 145.516C313.844 145.69 313.936 145.902 313.936 146.15C313.936 146.389 313.844 146.591 313.66 146.756C313.485 146.922 313.265 147.005 312.998 147.005C312.741 147.005 312.53 146.922 312.364 146.756C312.199 146.591 312.116 146.389 312.116 146.15ZM317.873 145.35H320.161V152.684C320.161 153.245 320.253 153.64 320.437 153.87C320.63 154.099 320.91 154.214 321.278 154.214C321.535 154.214 321.797 154.164 322.064 154.063C322.33 153.962 322.574 153.819 322.794 153.635L323.29 154.366C323.143 154.495 322.983 154.609 322.808 154.711C322.633 154.812 322.454 154.899 322.27 154.972C322.087 155.037 321.903 155.087 321.719 155.124C321.535 155.161 321.365 155.179 321.209 155.179C320.869 155.179 320.566 155.133 320.299 155.041C320.033 154.959 319.807 154.821 319.624 154.628C319.449 154.435 319.316 154.182 319.224 153.87C319.132 153.548 319.086 153.153 319.086 152.684V146.274H317.873V145.35ZM326.139 145.35H328.427V152.684C328.427 153.245 328.519 153.64 328.703 153.87C328.896 154.099 329.176 154.214 329.544 154.214C329.801 154.214 330.063 154.164 330.329 154.063C330.596 153.962 330.839 153.819 331.06 153.635L331.556 154.366C331.409 154.495 331.248 154.609 331.074 154.711C330.899 154.812 330.72 154.899 330.536 154.972C330.352 155.037 330.168 155.087 329.985 155.124C329.801 155.161 329.631 155.179 329.475 155.179C329.135 155.179 328.831 155.133 328.565 155.041C328.298 154.959 328.073 154.821 327.889 154.628C327.715 154.435 327.581 154.182 327.49 153.87C327.398 153.548 327.352 153.153 327.352 152.684V146.274H326.139V145.35ZM339.477 153.139C339.477 152.845 339.362 152.62 339.133 152.464C338.903 152.298 338.618 152.169 338.278 152.078C337.938 151.976 337.566 151.885 337.161 151.802C336.766 151.719 336.399 151.609 336.058 151.471C335.718 151.333 335.434 151.149 335.204 150.92C334.974 150.681 334.859 150.35 334.859 149.927C334.859 149.578 334.933 149.279 335.08 149.031C335.236 148.783 335.438 148.581 335.686 148.424C335.934 148.259 336.224 148.14 336.555 148.066C336.886 147.983 337.23 147.942 337.589 147.942C338.232 147.942 338.783 148.025 339.243 148.19C339.712 148.346 340.084 148.512 340.359 148.686L339.918 149.555C339.615 149.389 339.284 149.233 338.926 149.086C338.577 148.93 338.135 148.852 337.602 148.852C337.4 148.852 337.198 148.875 336.996 148.921C336.803 148.958 336.624 149.017 336.458 149.1C336.302 149.183 336.173 149.293 336.072 149.431C335.98 149.559 335.934 149.72 335.934 149.913C335.934 150.152 336.049 150.336 336.279 150.465C336.509 150.593 336.794 150.704 337.134 150.796C337.474 150.878 337.841 150.961 338.237 151.044C338.641 151.117 339.013 151.227 339.353 151.375C339.693 151.522 339.978 151.719 340.208 151.967C340.438 152.215 340.552 152.551 340.552 152.974C340.552 153.608 340.3 154.132 339.794 154.545C339.298 154.959 338.549 155.165 337.547 155.165C337.244 155.165 336.945 155.138 336.651 155.083C336.357 155.028 336.081 154.954 335.824 154.862C335.567 154.77 335.332 154.669 335.121 154.559C334.91 154.439 334.735 154.32 334.597 154.2L335.149 153.304C335.259 153.415 335.406 153.53 335.59 153.649C335.774 153.759 335.976 153.86 336.196 153.952C336.417 154.044 336.651 154.118 336.899 154.173C337.157 154.228 337.414 154.256 337.671 154.256C337.919 154.256 338.149 154.237 338.361 154.2C338.581 154.155 338.774 154.09 338.94 154.007C339.105 153.916 339.234 153.801 339.326 153.663C339.427 153.516 339.477 153.341 339.477 153.139ZM351.184 155V154.076H352.824V149.031H351.184V148.107H352.824V147.721C352.824 146.858 353.049 146.233 353.5 145.847C353.95 145.461 354.593 145.268 355.43 145.268C355.733 145.268 356.004 145.286 356.243 145.323C356.482 145.36 356.739 145.433 357.015 145.543L356.767 146.439C356.528 146.338 356.298 146.274 356.078 146.246C355.857 146.21 355.655 146.191 355.471 146.191C354.864 146.191 354.451 146.343 354.23 146.646C354.01 146.94 353.899 147.427 353.899 148.107H356.753V149.031H353.899V154.076H356.753V155H351.184ZM359.022 151.554C359.022 150.442 359.312 149.564 359.891 148.921C360.47 148.268 361.297 147.942 362.372 147.942C362.951 147.942 363.447 148.039 363.861 148.232C364.283 148.415 364.633 148.668 364.908 148.99C365.184 149.311 365.386 149.693 365.515 150.134C365.653 150.575 365.722 151.048 365.722 151.554C365.722 152.105 365.648 152.606 365.501 153.056C365.354 153.497 365.138 153.874 364.853 154.187C364.568 154.499 364.215 154.743 363.792 154.917C363.378 155.083 362.905 155.165 362.372 155.165C361.802 155.165 361.306 155.074 360.883 154.89C360.46 154.697 360.111 154.439 359.835 154.118C359.56 153.796 359.353 153.415 359.215 152.974C359.086 152.532 359.022 152.059 359.022 151.554ZM360.166 151.554C360.166 151.875 360.203 152.197 360.277 152.519C360.359 152.84 360.488 153.13 360.663 153.387C360.837 153.644 361.062 153.851 361.338 154.007C361.623 154.164 361.968 154.242 362.372 154.242C363.107 154.242 363.659 154.017 364.026 153.566C364.403 153.107 364.591 152.436 364.591 151.554C364.591 151.223 364.55 150.901 364.467 150.589C364.394 150.267 364.265 149.978 364.081 149.72C363.907 149.463 363.677 149.256 363.392 149.1C363.116 148.944 362.776 148.866 362.372 148.866C361.637 148.866 361.085 149.091 360.718 149.541C360.35 149.991 360.166 150.662 360.166 151.554ZM367.412 155V154.076H369.273V149.031H367.412V148.107H369.99L370.21 149.003H370.279C370.592 148.719 370.941 148.475 371.327 148.273C371.713 148.071 372.172 147.97 372.705 147.97C373.018 147.97 373.266 148.029 373.45 148.149C373.643 148.268 373.79 148.443 373.891 148.673C374.001 148.902 374.075 149.183 374.111 149.514C374.148 149.835 374.167 150.203 374.167 150.616L373.202 150.63C373.202 150.042 373.142 149.61 373.022 149.334C372.912 149.059 372.705 148.921 372.402 148.921C372.117 148.921 371.86 148.962 371.63 149.045C371.4 149.128 371.198 149.229 371.024 149.348C370.858 149.468 370.716 149.587 370.596 149.707C370.477 149.826 370.389 149.927 370.334 150.01V154.076H372.981V155H367.412ZM389.347 146.398C389.191 146.334 389.016 146.288 388.823 146.26C388.639 146.223 388.414 146.205 388.148 146.205C387.771 146.205 387.399 146.274 387.031 146.412C386.673 146.55 386.351 146.775 386.066 147.087C385.79 147.4 385.565 147.809 385.391 148.314C385.225 148.82 385.143 149.44 385.143 150.175C385.143 150.837 385.216 151.416 385.363 151.912C385.519 152.408 385.731 152.822 385.997 153.153C386.273 153.484 386.599 153.732 386.976 153.897C387.362 154.063 387.789 154.145 388.258 154.145C388.497 154.145 388.718 154.127 388.92 154.09C389.131 154.044 389.324 153.984 389.499 153.911V152.532H390.519V154.393L390.533 154.421C390.257 154.632 389.908 154.812 389.485 154.959C389.062 155.096 388.547 155.165 387.941 155.165C387.362 155.165 386.824 155.069 386.328 154.876C385.841 154.674 385.418 154.37 385.06 153.966C384.701 153.562 384.421 153.047 384.219 152.422C384.026 151.788 383.929 151.039 383.929 150.175C383.929 149.275 384.04 148.512 384.26 147.887C384.481 147.253 384.78 146.738 385.156 146.343C385.533 145.939 385.97 145.644 386.466 145.461C386.971 145.277 387.509 145.185 388.079 145.185C388.391 145.185 388.662 145.199 388.892 145.226C389.122 145.245 389.324 145.277 389.499 145.323C389.673 145.36 389.825 145.41 389.954 145.474C390.091 145.539 390.225 145.612 390.353 145.695H390.367V147.873H389.347V146.398ZM392.264 145.35H394.552V152.684C394.552 153.245 394.644 153.64 394.828 153.87C395.021 154.099 395.301 154.214 395.669 154.214C395.926 154.214 396.188 154.164 396.455 154.063C396.721 153.962 396.965 153.819 397.185 153.635L397.682 154.366C397.535 154.495 397.374 154.609 397.199 154.711C397.025 154.812 396.845 154.899 396.662 154.972C396.478 155.037 396.294 155.087 396.11 155.124C395.926 155.161 395.756 155.179 395.6 155.179C395.26 155.179 394.957 155.133 394.69 155.041C394.424 154.959 394.199 154.821 394.015 154.628C393.84 154.435 393.707 154.182 393.615 153.87C393.523 153.548 393.477 153.153 393.477 152.684V146.274H392.264V145.35ZM401.054 148.645C401.449 148.415 401.895 148.25 402.391 148.149C402.887 148.048 403.374 147.997 403.852 147.997C404.321 147.997 404.702 148.071 404.996 148.218C405.299 148.365 405.534 148.558 405.699 148.797C405.874 149.026 405.989 149.293 406.044 149.596C406.108 149.89 406.14 150.189 406.14 150.492C406.14 150.841 406.131 151.214 406.113 151.609C406.094 152.004 406.081 152.399 406.071 152.794C406.071 153.254 406.099 153.69 406.154 154.104H407.078V155H405.244L405.12 153.966H405.051C404.996 154.049 404.913 154.155 404.803 154.283C404.693 154.412 404.546 154.54 404.362 154.669C404.187 154.789 403.971 154.894 403.714 154.986C403.457 155.078 403.154 155.124 402.804 155.124C402.124 155.124 401.587 154.949 401.191 154.6C400.796 154.251 400.599 153.773 400.599 153.167C400.599 152.698 400.7 152.307 400.902 151.995C401.113 151.682 401.412 151.443 401.798 151.278C402.184 151.113 402.648 151.016 403.19 150.989C403.742 150.961 404.357 150.998 405.038 151.099C405.083 150.676 405.088 150.327 405.051 150.051C405.024 149.766 404.95 149.541 404.831 149.376C404.72 149.21 404.56 149.095 404.348 149.031C404.146 148.958 403.893 148.921 403.59 148.921C403.177 148.921 402.781 148.98 402.405 149.1C402.028 149.21 401.692 149.325 401.398 149.445L401.054 148.645ZM403.08 154.2C403.337 154.2 403.576 154.159 403.797 154.076C404.017 153.994 404.21 153.888 404.376 153.759C404.541 153.631 404.679 153.493 404.789 153.346C404.9 153.19 404.982 153.043 405.038 152.905V151.94C404.56 151.857 404.119 151.816 403.714 151.816C403.31 151.816 402.961 151.862 402.666 151.953C402.372 152.036 402.143 152.169 401.977 152.353C401.812 152.537 401.729 152.776 401.729 153.07C401.729 153.373 401.83 153.64 402.032 153.87C402.244 154.09 402.593 154.2 403.08 154.2ZM412.835 148.107H414.792V152.808C414.792 153.258 414.82 153.69 414.875 154.104H415.798V155H413.965L413.924 153.828H413.868C413.629 154.223 413.312 154.545 412.917 154.793C412.522 155.041 412.044 155.165 411.484 155.165C411.061 155.165 410.698 155.115 410.395 155.014C410.1 154.922 409.857 154.756 409.664 154.518C409.471 154.279 409.329 153.962 409.237 153.566C409.145 153.162 409.099 152.661 409.099 152.064V149.031H408.175V148.107H410.174V151.843C410.174 152.22 410.188 152.56 410.215 152.863C410.252 153.157 410.321 153.41 410.422 153.621C410.523 153.824 410.67 153.98 410.863 154.09C411.065 154.191 411.332 154.242 411.663 154.242C412.141 154.242 412.554 154.086 412.903 153.773C413.262 153.461 413.533 153.07 413.717 152.601V149.031H412.835V148.107ZM420.907 145.35H423.14V152.643C423.14 152.725 423.145 152.831 423.154 152.96C423.163 153.079 423.173 153.208 423.182 153.346C423.2 153.484 423.219 153.621 423.237 153.759C423.255 153.888 423.274 154.003 423.292 154.104H424.216V155H422.382L422.244 153.939H422.189C421.987 154.288 421.684 154.582 421.279 154.821C420.884 155.051 420.425 155.165 419.901 155.165C418.862 155.165 418.095 154.876 417.599 154.297C417.112 153.709 416.868 152.799 416.868 151.568C416.868 150.989 416.951 150.478 417.116 150.037C417.282 149.587 417.516 149.215 417.819 148.921C418.132 148.617 418.504 148.388 418.936 148.232C419.368 148.075 419.85 147.997 420.383 147.997C420.576 147.997 420.746 148.002 420.893 148.011C421.05 148.02 421.192 148.034 421.321 148.052C421.449 148.071 421.569 148.098 421.679 148.135C421.799 148.163 421.927 148.195 422.065 148.232V146.274H420.907V145.35ZM420.08 154.242C420.641 154.242 421.082 154.099 421.403 153.814C421.725 153.52 421.946 153.084 422.065 152.505V149.307C421.863 149.169 421.633 149.068 421.376 149.003C421.128 148.939 420.797 148.907 420.383 148.907C419.648 148.907 419.069 149.123 418.646 149.555C418.224 149.978 418.012 150.648 418.012 151.568C418.012 151.944 418.045 152.298 418.109 152.629C418.182 152.951 418.297 153.231 418.453 153.47C418.619 153.709 418.835 153.897 419.101 154.035C419.368 154.173 419.694 154.242 420.08 154.242ZM431.654 154.132C431.489 154.279 431.291 154.416 431.061 154.545C430.841 154.674 430.597 154.784 430.331 154.876C430.064 154.968 429.784 155.037 429.49 155.083C429.205 155.138 428.916 155.165 428.622 155.165C428.07 155.165 427.583 155.083 427.16 154.917C426.738 154.743 426.384 154.499 426.099 154.187C425.814 153.865 425.598 153.484 425.451 153.043C425.304 152.601 425.23 152.105 425.23 151.554C425.23 150.975 425.308 150.46 425.465 150.01C425.63 149.559 425.864 149.183 426.168 148.879C426.471 148.576 426.839 148.346 427.271 148.19C427.703 148.025 428.185 147.942 428.718 147.942C429.104 147.942 429.485 147.993 429.862 148.094C430.239 148.195 430.57 148.388 430.855 148.673C431.149 148.948 431.374 149.334 431.53 149.831C431.686 150.318 431.742 150.952 431.696 151.733H426.361C426.361 152.56 426.581 153.18 427.022 153.594C427.473 153.998 428.07 154.2 428.815 154.2C429.063 154.2 429.306 154.173 429.545 154.118C429.793 154.053 430.028 153.98 430.248 153.897C430.469 153.814 430.662 153.723 430.827 153.621C431.002 153.52 431.135 153.428 431.227 153.346L431.654 154.132ZM428.746 148.852C428.442 148.852 428.153 148.884 427.877 148.948C427.611 149.013 427.372 149.123 427.16 149.279C426.958 149.426 426.788 149.624 426.65 149.872C426.522 150.111 426.439 150.41 426.402 150.768H430.689C430.643 150.161 430.446 149.693 430.097 149.362C429.756 149.022 429.306 148.852 428.746 148.852ZM443.113 150.713C443.113 150.428 443.163 150.171 443.264 149.941C443.365 149.702 443.499 149.5 443.664 149.334C443.839 149.16 444.041 149.026 444.271 148.935C444.51 148.843 444.762 148.797 445.029 148.797C445.295 148.797 445.543 148.843 445.773 148.935C446.012 149.017 446.214 149.141 446.38 149.307C446.554 149.472 446.692 149.674 446.793 149.913C446.894 150.143 446.945 150.41 446.945 150.713C446.945 151.016 446.894 151.287 446.793 151.526C446.692 151.756 446.554 151.953 446.38 152.119C446.214 152.284 446.012 152.413 445.773 152.505C445.543 152.588 445.295 152.629 445.029 152.629C444.762 152.629 444.51 152.588 444.271 152.505C444.041 152.413 443.839 152.284 443.664 152.119C443.499 151.953 443.365 151.756 443.264 151.526C443.163 151.287 443.113 151.016 443.113 150.713ZM463.738 146.398C463.582 146.334 463.407 146.288 463.214 146.26C463.031 146.223 462.805 146.205 462.539 146.205C462.162 146.205 461.79 146.274 461.422 146.412C461.064 146.55 460.742 146.775 460.457 147.087C460.182 147.4 459.957 147.809 459.782 148.314C459.616 148.82 459.534 149.44 459.534 150.175C459.534 150.837 459.607 151.416 459.754 151.912C459.911 152.408 460.122 152.822 460.388 153.153C460.664 153.484 460.99 153.732 461.367 153.897C461.753 154.063 462.181 154.145 462.649 154.145C462.888 154.145 463.109 154.127 463.311 154.09C463.522 154.044 463.715 153.984 463.89 153.911V152.532H464.91V154.393L464.924 154.421C464.648 154.632 464.299 154.812 463.876 154.959C463.453 155.096 462.939 155.165 462.332 155.165C461.753 155.165 461.216 155.069 460.719 154.876C460.232 154.674 459.809 154.37 459.451 153.966C459.093 153.562 458.812 153.047 458.61 152.422C458.417 151.788 458.321 151.039 458.321 150.175C458.321 149.275 458.431 148.512 458.652 147.887C458.872 147.253 459.171 146.738 459.548 146.343C459.924 145.939 460.361 145.644 460.857 145.461C461.363 145.277 461.9 145.185 462.47 145.185C462.782 145.185 463.054 145.199 463.283 145.226C463.513 145.245 463.715 145.277 463.89 145.323C464.064 145.36 464.216 145.41 464.345 145.474C464.483 145.539 464.616 145.612 464.745 145.695H464.758V147.873H463.738V146.398ZM470.694 148.107H472.652V152.808C472.652 153.258 472.679 153.69 472.735 154.104H473.658V155H471.825L471.783 153.828H471.728C471.489 154.223 471.172 154.545 470.777 154.793C470.382 155.041 469.904 155.165 469.343 155.165C468.921 155.165 468.558 155.115 468.254 155.014C467.96 154.922 467.717 154.756 467.524 154.518C467.331 154.279 467.188 153.962 467.096 153.566C467.005 153.162 466.959 152.661 466.959 152.064V149.031H466.035V148.107H468.034V151.843C468.034 152.22 468.048 152.56 468.075 152.863C468.112 153.157 468.181 153.41 468.282 153.621C468.383 153.824 468.53 153.98 468.723 154.09C468.925 154.191 469.192 154.242 469.523 154.242C470.001 154.242 470.414 154.086 470.763 153.773C471.122 153.461 471.393 153.07 471.577 152.601V149.031H470.694V148.107ZM474.866 155V154.076H476.727V149.031H474.866V148.107H477.444L477.664 149.003H477.733C478.046 148.719 478.395 148.475 478.781 148.273C479.167 148.071 479.626 147.97 480.159 147.97C480.472 147.97 480.72 148.029 480.904 148.149C481.097 148.268 481.244 148.443 481.345 148.673C481.455 148.902 481.529 149.183 481.565 149.514C481.602 149.835 481.621 150.203 481.621 150.616L480.656 150.63C480.656 150.042 480.596 149.61 480.476 149.334C480.366 149.059 480.159 148.921 479.856 148.921C479.571 148.921 479.314 148.962 479.084 149.045C478.854 149.128 478.652 149.229 478.478 149.348C478.312 149.468 478.17 149.587 478.05 149.707C477.931 149.826 477.843 149.927 477.788 150.01V154.076H480.435V155H474.866ZM488.26 153.139C488.26 152.845 488.145 152.62 487.915 152.464C487.685 152.298 487.4 152.169 487.06 152.078C486.72 151.976 486.348 151.885 485.944 151.802C485.549 151.719 485.181 151.609 484.841 151.471C484.501 151.333 484.216 151.149 483.986 150.92C483.756 150.681 483.642 150.35 483.642 149.927C483.642 149.578 483.715 149.279 483.862 149.031C484.018 148.783 484.221 148.581 484.469 148.424C484.717 148.259 485.006 148.14 485.337 148.066C485.668 147.983 486.013 147.942 486.371 147.942C487.014 147.942 487.566 148.025 488.025 148.19C488.494 148.346 488.866 148.512 489.142 148.686L488.701 149.555C488.397 149.389 488.067 149.233 487.708 149.086C487.359 148.93 486.918 148.852 486.385 148.852C486.183 148.852 485.98 148.875 485.778 148.921C485.585 148.958 485.406 149.017 485.241 149.1C485.084 149.183 484.956 149.293 484.855 149.431C484.763 149.559 484.717 149.72 484.717 149.913C484.717 150.152 484.832 150.336 485.061 150.465C485.291 150.593 485.576 150.704 485.916 150.796C486.256 150.878 486.624 150.961 487.019 151.044C487.423 151.117 487.796 151.227 488.136 151.375C488.476 151.522 488.76 151.719 488.99 151.967C489.22 152.215 489.335 152.551 489.335 152.974C489.335 153.608 489.082 154.132 488.577 154.545C488.08 154.959 487.331 155.165 486.33 155.165C486.026 155.165 485.728 155.138 485.434 155.083C485.14 155.028 484.864 154.954 484.607 154.862C484.349 154.77 484.115 154.669 483.904 154.559C483.692 154.439 483.518 154.32 483.38 154.2L483.931 153.304C484.041 153.415 484.188 153.53 484.372 153.649C484.556 153.759 484.758 153.86 484.979 153.952C485.199 154.044 485.434 154.118 485.682 154.173C485.939 154.228 486.196 154.256 486.454 154.256C486.702 154.256 486.932 154.237 487.143 154.2C487.364 154.155 487.557 154.09 487.722 154.007C487.887 153.916 488.016 153.801 488.108 153.663C488.209 153.516 488.26 153.341 488.26 153.139ZM491.273 151.554C491.273 150.442 491.563 149.564 492.142 148.921C492.721 148.268 493.548 147.942 494.623 147.942C495.202 147.942 495.698 148.039 496.112 148.232C496.535 148.415 496.884 148.668 497.159 148.99C497.435 149.311 497.637 149.693 497.766 150.134C497.904 150.575 497.973 151.048 497.973 151.554C497.973 152.105 497.899 152.606 497.752 153.056C497.605 153.497 497.389 153.874 497.104 154.187C496.819 154.499 496.466 154.743 496.043 154.917C495.629 155.083 495.156 155.165 494.623 155.165C494.053 155.165 493.557 155.074 493.134 154.89C492.711 154.697 492.362 154.439 492.087 154.118C491.811 153.796 491.604 153.415 491.466 152.974C491.338 152.532 491.273 152.059 491.273 151.554ZM492.417 151.554C492.417 151.875 492.454 152.197 492.528 152.519C492.61 152.84 492.739 153.13 492.914 153.387C493.088 153.644 493.313 153.851 493.589 154.007C493.874 154.164 494.219 154.242 494.623 154.242C495.358 154.242 495.91 154.017 496.277 153.566C496.654 153.107 496.842 152.436 496.842 151.554C496.842 151.223 496.801 150.901 496.718 150.589C496.645 150.267 496.516 149.978 496.332 149.72C496.158 149.463 495.928 149.256 495.643 149.1C495.367 148.944 495.027 148.866 494.623 148.866C493.888 148.866 493.336 149.091 492.969 149.541C492.601 149.991 492.417 150.662 492.417 151.554ZM499.663 155V154.076H501.524V149.031H499.663V148.107H502.241L502.461 149.003H502.53C502.843 148.719 503.192 148.475 503.578 148.273C503.964 148.071 504.423 147.97 504.956 147.97C505.269 147.97 505.517 148.029 505.701 148.149C505.894 148.268 506.041 148.443 506.142 148.673C506.252 148.902 506.326 149.183 506.363 149.514C506.399 149.835 506.418 150.203 506.418 150.616L505.453 150.63C505.453 150.042 505.393 149.61 505.273 149.334C505.163 149.059 504.956 148.921 504.653 148.921C504.368 148.921 504.111 148.962 503.881 149.045C503.651 149.128 503.449 149.229 503.275 149.348C503.109 149.468 502.967 149.587 502.847 149.707C502.728 149.826 502.641 149.927 502.585 150.01V154.076H505.232V155H499.663ZM517.504 150.713C517.504 150.428 517.554 150.171 517.656 149.941C517.757 149.702 517.89 149.5 518.055 149.334C518.23 149.16 518.432 149.026 518.662 148.935C518.901 148.843 519.154 148.797 519.42 148.797C519.687 148.797 519.935 148.843 520.164 148.935C520.403 149.017 520.606 149.141 520.771 149.307C520.946 149.472 521.083 149.674 521.185 149.913C521.286 150.143 521.336 150.41 521.336 150.713C521.336 151.016 521.286 151.287 521.185 151.526C521.083 151.756 520.946 151.953 520.771 152.119C520.606 152.284 520.403 152.413 520.164 152.505C519.935 152.588 519.687 152.629 519.42 152.629C519.154 152.629 518.901 152.588 518.662 152.505C518.432 152.413 518.23 152.284 518.055 152.119C517.89 151.953 517.757 151.756 517.656 151.526C517.554 151.287 517.504 151.016 517.504 150.713ZM538.129 146.398C537.973 146.334 537.799 146.288 537.606 146.26C537.422 146.223 537.197 146.205 536.93 146.205C536.553 146.205 536.181 146.274 535.814 146.412C535.455 146.55 535.133 146.775 534.849 147.087C534.573 147.4 534.348 147.809 534.173 148.314C534.008 148.82 533.925 149.44 533.925 150.175C533.925 150.837 533.999 151.416 534.146 151.912C534.302 152.408 534.513 152.822 534.78 153.153C535.055 153.484 535.382 153.732 535.758 153.897C536.144 154.063 536.572 154.145 537.04 154.145C537.279 154.145 537.5 154.127 537.702 154.09C537.913 154.044 538.106 153.984 538.281 153.911V152.532H539.301V154.393L539.315 154.421C539.039 154.632 538.69 154.812 538.267 154.959C537.845 155.096 537.33 155.165 536.723 155.165C536.144 155.165 535.607 155.069 535.111 154.876C534.623 154.674 534.201 154.37 533.842 153.966C533.484 153.562 533.204 153.047 533.001 152.422C532.808 151.788 532.712 151.039 532.712 150.175C532.712 149.275 532.822 148.512 533.043 147.887C533.263 147.253 533.562 146.738 533.939 146.343C534.316 145.939 534.752 145.644 535.248 145.461C535.754 145.277 536.291 145.185 536.861 145.185C537.174 145.185 537.445 145.199 537.675 145.226C537.904 145.245 538.106 145.277 538.281 145.323C538.456 145.36 538.607 145.41 538.736 145.474C538.874 145.539 539.007 145.612 539.136 145.695H539.15V147.873H538.129V146.398ZM540.867 151.554C540.867 150.442 541.157 149.564 541.736 148.921C542.315 148.268 543.142 147.942 544.217 147.942C544.796 147.942 545.292 148.039 545.706 148.232C546.129 148.415 546.478 148.668 546.754 148.99C547.029 149.311 547.231 149.693 547.36 150.134C547.498 150.575 547.567 151.048 547.567 151.554C547.567 152.105 547.493 152.606 547.346 153.056C547.199 153.497 546.983 153.874 546.698 154.187C546.414 154.499 546.06 154.743 545.637 154.917C545.223 155.083 544.75 155.165 544.217 155.165C543.647 155.165 543.151 155.074 542.728 154.89C542.306 154.697 541.956 154.439 541.681 154.118C541.405 153.796 541.198 153.415 541.06 152.974C540.932 152.532 540.867 152.059 540.867 151.554ZM542.011 151.554C542.011 151.875 542.048 152.197 542.122 152.519C542.204 152.84 542.333 153.13 542.508 153.387C542.682 153.644 542.908 153.851 543.183 154.007C543.468 154.164 543.813 154.242 544.217 154.242C544.952 154.242 545.504 154.017 545.871 153.566C546.248 153.107 546.437 152.436 546.437 151.554C546.437 151.223 546.395 150.901 546.312 150.589C546.239 150.267 546.11 149.978 545.926 149.72C545.752 149.463 545.522 149.256 545.237 149.1C544.962 148.944 544.621 148.866 544.217 148.866C543.482 148.866 542.93 149.091 542.563 149.541C542.195 149.991 542.011 150.662 542.011 151.554ZM549.671 150.52C549.671 150.437 549.666 150.331 549.657 150.203C549.657 150.065 549.652 149.927 549.643 149.789C549.634 149.642 549.62 149.5 549.602 149.362C549.593 149.224 549.579 149.105 549.56 149.003H548.637V148.107H550.47L550.608 149.072H550.677C550.925 148.751 551.238 148.484 551.614 148.273C552 148.052 552.469 147.942 553.02 147.942C554.004 147.942 554.744 148.213 555.24 148.755C555.736 149.298 555.984 150.184 555.984 151.416C555.984 151.995 555.897 152.519 555.722 152.987C555.557 153.447 555.318 153.837 555.005 154.159C554.693 154.481 554.316 154.729 553.875 154.904C553.434 155.078 552.947 155.165 552.414 155.165C552.221 155.165 552.046 155.156 551.89 155.138C551.743 155.129 551.605 155.11 551.476 155.083C551.357 155.064 551.238 155.037 551.118 155C550.999 154.963 550.87 154.917 550.732 154.862V157.757H549.671V150.52ZM552.841 148.948C552.566 148.948 552.304 148.999 552.055 149.1C551.817 149.201 551.601 149.334 551.408 149.5C551.224 149.665 551.072 149.849 550.953 150.051C550.833 150.253 550.76 150.456 550.732 150.658V153.801C550.934 153.939 551.159 154.049 551.408 154.132C551.665 154.205 552 154.242 552.414 154.242C553.149 154.242 553.737 154.003 554.178 153.525C554.619 153.038 554.84 152.33 554.84 151.402C554.84 150.621 554.684 150.019 554.371 149.596C554.068 149.164 553.558 148.948 552.841 148.948ZM558.06 155V154.076H560.459V149.031H558.06V148.107H561.562V154.076H563.905V155H558.06ZM560.087 146.15C560.087 145.902 560.17 145.69 560.335 145.516C560.5 145.332 560.712 145.24 560.969 145.24C561.236 145.24 561.456 145.332 561.631 145.516C561.815 145.69 561.906 145.902 561.906 146.15C561.906 146.389 561.815 146.591 561.631 146.756C561.456 146.922 561.236 147.005 560.969 147.005C560.712 147.005 560.5 146.922 560.335 146.756C560.17 146.591 560.087 146.389 560.087 146.15ZM565.844 145.35H568.132V152.684C568.132 153.245 568.224 153.64 568.408 153.87C568.601 154.099 568.881 154.214 569.249 154.214C569.506 154.214 569.768 154.164 570.034 154.063C570.301 153.962 570.544 153.819 570.765 153.635L571.261 154.366C571.114 154.495 570.953 154.609 570.779 154.711C570.604 154.812 570.425 154.899 570.241 154.972C570.057 155.037 569.873 155.087 569.69 155.124C569.506 155.161 569.336 155.179 569.18 155.179C568.84 155.179 568.536 155.133 568.27 155.041C568.003 154.959 567.778 154.821 567.594 154.628C567.42 154.435 567.286 154.182 567.195 153.87C567.103 153.548 567.057 153.153 567.057 152.684V146.274H565.844V145.35ZM573.93 151.554C573.93 150.442 574.22 149.564 574.799 148.921C575.378 148.268 576.205 147.942 577.28 147.942C577.859 147.942 578.355 148.039 578.769 148.232C579.191 148.415 579.541 148.668 579.816 148.99C580.092 149.311 580.294 149.693 580.423 150.134C580.561 150.575 580.63 151.048 580.63 151.554C580.63 152.105 580.556 152.606 580.409 153.056C580.262 153.497 580.046 153.874 579.761 154.187C579.476 154.499 579.122 154.743 578.7 154.917C578.286 155.083 577.813 155.165 577.28 155.165C576.71 155.165 576.214 155.074 575.791 154.89C575.368 154.697 575.019 154.439 574.743 154.118C574.468 153.796 574.261 153.415 574.123 152.974C573.994 152.532 573.93 152.059 573.93 151.554ZM575.074 151.554C575.074 151.875 575.111 152.197 575.185 152.519C575.267 152.84 575.396 153.13 575.57 153.387C575.745 153.644 575.97 153.851 576.246 154.007C576.531 154.164 576.875 154.242 577.28 154.242C578.015 154.242 578.566 154.017 578.934 153.566C579.311 153.107 579.499 152.436 579.499 151.554C579.499 151.223 579.458 150.901 579.375 150.589C579.302 150.267 579.173 149.978 578.989 149.72C578.815 149.463 578.585 149.256 578.3 149.1C578.024 148.944 577.684 148.866 577.28 148.866C576.545 148.866 575.993 149.091 575.626 149.541C575.258 149.991 575.074 150.662 575.074 151.554ZM581.837 148.107H583.478V146.743L584.553 146.439V148.107H588.234V149.031H584.553V152.284C584.553 152.955 584.714 153.451 585.035 153.773C585.366 154.095 585.835 154.256 586.442 154.256C586.855 154.256 587.214 154.177 587.517 154.021C587.829 153.865 588.11 153.695 588.358 153.511L588.716 154.325C588.394 154.582 588.008 154.789 587.558 154.945C587.117 155.101 586.662 155.179 586.193 155.179C585.826 155.179 585.477 155.124 585.146 155.014C584.824 154.913 584.539 154.752 584.291 154.531C584.043 154.311 583.845 154.03 583.698 153.69C583.551 153.341 583.478 152.928 583.478 152.45V149.031H581.837V148.107Z" fill="white"/>
</svg>
